<svg xmlns="http://www.w3.org/2000/svg" viewBox="0 0 24 24" fill="none" stroke="currentColor" stroke-width="1.8" stroke-linecap="round" stroke-linejoin="round" aria-hidden="true">
<g fill="none" stroke="currentColor" stroke-linecap="round" stroke-linejoin="round">
      <path d="M9 4h6" />
      <path d="M9 2h6a2 2 0 0 1 2 2v2H7V4a2 2 0 0 1 2-2Z" />
      <path d="M7 5H6a2 2 0 0 0-2 2v13a2 2 0 0 0 2 2h12a2 2 0 0 0 2-2V7a2 2 0 0 0-2-2h-1" />
      <path d="M12 11v6" />
      <path d="m9 14 3 3 3-3" />
    </g>
</svg>
