<svg xmlns="http://www.w3.org/2000/svg" viewBox="0 0 24 24" fill="none" stroke="currentColor" stroke-width="1.8" stroke-linecap="round" stroke-linejoin="round" aria-hidden="true">
	<defs>
		<mask id="reference-preview-off-cutout-mask" maskUnits="userSpaceOnUse" x="0" y="0" width="24" height="24">
			<rect width="24" height="24" fill="white" />
			<g transform="translate(7.9 6.9) scale(0.66)" fill="none" stroke="black" stroke-linecap="round" stroke-linejoin="round">
				<path d="M3.2 11.4C6.5 14.1 17.5 14.1 20.8 11.4" stroke-width="4.8" />
				<path d="M7.15 12.55 5.85 14.95" stroke-width="4.8" />
				<path d="M12 13.1V16.2" stroke-width="4.8" />
				<path d="M16.85 12.55 18.15 14.95" stroke-width="4.8" />
			</g>
		</mask>
	</defs>
	<g fill="none" stroke="currentColor" stroke-linecap="round" stroke-linejoin="round" mask="url(#reference-preview-off-cutout-mask)">
		<rect x="2.9" y="4.2" width="16.1" height="13.3" rx="2.1" />
		<circle cx="7.15" cy="8.15" r="1.7" />
		<path d="M19 14.2 14.25 9.95 4.6 17.45" />
	</g>
	<g fill="none" stroke="currentColor" stroke-linecap="round" stroke-linejoin="round">
		<g transform="translate(7.9 6.9) scale(0.66)">
			<path d="M3.2 11.4C6.5 14.1 17.5 14.1 20.8 11.4" />
			<path d="M7.15 12.55 5.85 14.95" />
			<path d="M12 13.1V16.2" />
			<path d="M16.85 12.55 18.15 14.95" />
		</g>
	</g>
</svg>
